<svg width="50" height="40" viewBox="0 0 50 40" fill="currentColor" xmlns="http://www.w3.org/2000/svg">
<path d="M20 0V6.06061H10V12.1212H5V18.1818H1.125C0.648438 18.1913 0.246094 18.6032 0.15625 19.1667C0.15625 19.1667 0 20.2036 0 21.5152C0 22.3485 0.0703125 23.2528 0.1875 24.1667C0.128906 24.1856 0.0507813 24.2282 0 24.2424H0.1875C0.476563 26.4347 1.14062 28.7689 2.25 30.9848C2.25391 30.9943 2.24609 31.0133 2.25 31.0227C2.25781 31.0464 2.26953 31.0748 2.28125 31.0985C2.33203 31.3873 2.46484 31.643 2.65625 31.8182C2.67578 31.8324 2.69922 31.8466 2.71875 31.8561C3.02734 32.3958 3.35156 32.9356 3.71875 33.447C6.39453 37.1875 10.7383 40 17 40C27.2227 40 35.8672 34.7206 40.75 24.2424H49.8438C48.7578 23.911 46.4258 23.4659 46.8125 21.7424C45.5195 23.5559 43.0586 23.7831 41.1562 23.3712C41.5195 22.5379 41.8711 21.6903 42.1875 20.7955C45.0781 20.7055 47.1523 19.5786 48.3125 18.2197C49.582 16.733 49.9688 15.0758 49.9688 15.0758C50.0664 14.6117 49.9336 14.1241 49.625 13.8258C49.625 13.8258 47.0977 11.5909 43.3125 12.3485C42.2344 8.06345 39.4375 5.98485 39.4375 5.98485C39.2305 5.83807 38.9883 5.78125 38.75 5.83333C38.5898 5.87595 38.4375 5.96591 38.3125 6.09848C38.3125 6.09848 37.6445 6.78977 37.0938 8.0303C36.543 9.27083 36.0352 11.16 36.2188 13.5985C36.3047 14.7396 36.6016 15.8239 37.0312 16.8561C36.7891 17.036 36.6484 17.1875 36.25 17.3864C35.4219 17.803 34.2148 18.1818 32.5 18.1818H32V12.1212H27V0H20ZM22 2.42424H25V6.06061H22V2.42424ZM12 8.48485H15V12.1212H12V8.48485ZM17 8.48485H20V12.1212H17V8.48485ZM22 8.48485H25V12.1212H22V8.48485ZM39.0938 8.75C39.8359 9.41761 41.1797 10.8144 41.6562 13.8636C41.707 14.1998 41.8711 14.4886 42.1094 14.6686C42.3477 14.8485 42.6367 14.9006 42.9062 14.8106C45.457 13.9631 46.8359 14.6591 47.5938 15.1894C47.4492 15.5729 47.4727 15.8097 46.9062 16.4773C45.9961 17.5426 44.4531 18.6174 41.5625 18.4848C41.1406 18.4659 40.7539 18.7689 40.5938 19.2424C40.1953 20.4498 39.7344 21.5672 39.25 22.6515C39.1016 22.5473 38.9766 22.4242 38.875 22.3106C37.5352 24.6638 29.7617 23.7642 29.2188 21.9318C27.543 24.3182 22.3359 24.3182 20.6562 21.9318C20.1133 23.7642 12.3086 24.6638 10.9688 22.3106C9.76953 23.6742 5.03516 24.5123 3.0625 21.7424C3.25 22.5758 2.76562 23.1155 2.125 23.4848C2.04297 22.7936 2 22.1354 2 21.5152C2 20.9943 2.03125 20.947 2.0625 20.6061H32.5C34.4688 20.6061 35.9453 20.1515 37 19.6212C38.0547 19.0909 38.8047 18.447 38.9062 18.3712C39.1484 18.1866 39.3125 17.8883 39.3594 17.5473C39.4062 17.2112 39.332 16.8608 39.1562 16.5909C38.6016 15.715 38.3125 14.6165 38.2188 13.3712C38.0742 11.4157 38.4531 10.0473 38.8438 9.16667C38.9766 8.86837 38.9844 8.92992 39.0938 8.75ZM7 14.5455H10V18.1818H7V14.5455ZM12 14.5455H15V18.1818H12V14.5455ZM17 14.5455H20V18.1818H17V14.5455ZM22 14.5455H25V18.1818H22V14.5455ZM27 14.5455H30V18.1818H27V14.5455ZM2.25 24.2424H38.5C33.9102 33.2292 26.2891 37.5758 17 37.5758C11.5312 37.5758 7.98438 35.3267 5.65625 32.3485C10.0938 32.6042 13.5312 31.1742 13.5312 31.1742C14.082 31.089 14.4766 30.4782 14.4062 29.8106C14.3359 29.143 13.832 28.6648 13.2812 28.75C13.2266 28.7595 13.1758 28.7689 13.125 28.7879C13.0391 28.8021 12.957 28.8258 12.875 28.8636C12.875 28.8636 8.78516 30.554 4 29.7348C3.10156 27.9403 2.53516 26.018 2.25 24.2424ZM16 26.6667C15.4492 26.6667 15 27.2112 15 27.8788C15 28.5464 15.4492 29.0909 16 29.0909C16.5508 29.0909 17 28.5464 17 27.8788C17 27.7131 16.9883 27.5663 16.9375 27.4242C16.8672 27.5758 16.7148 27.6894 16.5625 27.6894C16.3359 27.6894 16.1562 27.4337 16.1562 27.1591C16.1562 26.9744 16.2539 26.8277 16.375 26.7424C16.2617 26.6903 16.1289 26.6667 16 26.6667Z"/>
</svg>
