<svg width="35" height="40" viewBox="0 0 35 40" fill="currentColor" xmlns="http://www.w3.org/2000/svg">
<path d="M17.5 4.94394e-05C17.4658 -0.000258852 17.4316 0.000874828 17.3975 0.00344617C13.676 0.0183516 10.9326 0.814906 9.11997 1.63218C7.65812 2.29129 7.20138 2.75077 6.89829 3.00785C6.34135 2.82131 5.79239 2.60874 5.14709 2.60874C2.31672 2.60874 4.82731e-05 4.56567 4.82731e-05 6.95655C4.82731e-05 8.71982 1.28963 10.1899 3.08828 10.8679V19.0251L0.452425 21.2517C-0.150808 21.7612 -0.150808 22.5865 0.452425 23.0961C0.754042 23.3509 1.14887 23.4782 1.54416 23.4782C1.93945 23.4782 2.33428 23.3509 2.6359 23.0961L2.81484 22.945C2.74206 23.3398 2.67453 23.7318 2.58966 24.144C2.32972 25.4065 2.05887 26.9082 2.05887 29.5652C2.05887 32.0326 3.44689 34.5917 6.00762 36.559L4.57006 37.7734C3.96683 38.2829 3.96683 39.1082 4.57006 39.6178C4.87168 39.8726 5.2665 39.9999 5.6618 39.9999C6.05709 39.9999 6.45295 39.8726 6.75353 39.6178L8.54294 38.1063C10.9226 39.2584 13.9 39.984 17.4095 39.9965C17.4156 39.9971 17.4216 39.9977 17.4276 39.9982C17.4523 39.9983 17.4752 39.9999 17.5 39.9999C17.5349 40.0003 17.5698 39.9992 17.6045 39.9965C21.1079 39.9821 24.0806 39.2568 26.4571 38.1063L28.2465 39.6178C28.5471 39.8726 28.9429 39.9999 29.3382 39.9999C29.7335 39.9999 30.1283 39.8726 30.4299 39.6178C31.0332 39.1082 31.0332 38.2829 30.4299 37.7734L28.9904 36.5573C31.5501 34.5902 32.9411 32.032 32.9411 29.5652C32.9411 26.9082 32.6703 25.4065 32.4103 24.144C32.3255 23.7318 32.2579 23.3398 32.1852 22.945L32.3641 23.0961C32.6657 23.3509 33.0605 23.4782 33.4558 23.4782C33.8511 23.4782 34.246 23.3509 34.5476 23.0961C35.1508 22.5865 35.1508 21.7612 34.5476 21.2517L31.9117 19.0251V10.8679C33.7104 10.1899 35 8.71982 35 6.95655C35 4.56567 32.6833 2.60874 29.8529 2.60874C29.2076 2.60874 28.6586 2.82131 28.1017 3.00785C27.7986 2.75077 27.3419 2.29129 25.88 1.63218C24.0624 0.812632 21.3097 0.0123091 17.5724 0.0017478C17.5483 0.000464951 17.5241 -0.000101535 17.5 4.94394e-05ZM17.5 1.73917C20.9305 1.73917 23.3483 2.46124 24.9109 3.1658C26.4736 3.87037 27.1145 4.50241 27.1145 4.50241C27.2709 4.65277 27.4839 4.75295 27.7176 4.78606C27.9513 4.81917 28.1913 4.78317 28.3973 4.68414C28.8422 4.46994 29.3258 4.34786 29.8529 4.34786C31.5705 4.34786 32.9411 5.5057 32.9411 6.95655C32.9411 8.17841 31.956 9.185 30.625 9.47523C30.4043 9.52338 30.2087 9.63205 30.069 9.7842C29.9293 9.93634 29.8533 10.1234 29.8529 10.3159V20C29.8529 22.0213 30.1289 23.2056 30.3837 24.4429C30.6385 25.6802 30.8823 27.0048 30.8823 29.5652C30.8823 33.4542 26.3165 38.2608 17.5 38.2608C8.68346 38.2608 4.11768 33.4542 4.11768 29.5652C4.11768 27.0048 4.36154 25.6802 4.6163 24.4429C4.87107 23.2056 5.14709 22.0213 5.14709 20V10.3159C5.14674 10.1234 5.07075 9.93634 4.93103 9.7842C4.7913 9.63205 4.59575 9.52338 4.37504 9.47523C3.04396 9.185 2.05887 8.17841 2.05887 6.95655C2.05887 5.5057 3.42954 4.34786 5.14709 4.34786C5.67422 4.34786 6.15781 4.46994 6.60274 4.68414C6.80865 4.78317 7.0487 4.81917 7.28239 4.78606C7.51607 4.75295 7.72908 4.65277 7.88548 4.50241C7.88548 4.50241 8.5264 3.87037 10.0891 3.1658C11.6517 2.46124 14.0695 1.73917 17.5 1.73917ZM11.8383 5.21743C9.29207 5.21743 7.20591 6.97965 7.20591 9.13046C7.20591 11.2813 9.29207 13.0435 11.8383 13.0435C14.3844 13.0435 16.4706 11.2813 16.4706 9.13046C16.4706 6.97965 14.3844 5.21743 11.8383 5.21743ZM23.1597 5.21912C20.6141 5.21912 18.5294 6.98013 18.5294 9.13046C18.5294 11.2808 20.6141 13.0418 23.1597 13.0418C25.7053 13.0418 27.7921 11.2808 27.7921 9.13046C27.7921 6.98013 25.7053 5.21912 23.1597 5.21912ZM5.14709 6.08699C4.57886 6.08699 4.11768 6.47655 4.11768 6.95655C4.11768 7.43655 4.57886 7.82611 5.14709 7.82611C5.21709 7.82611 5.27825 7.80345 5.34413 7.79215C5.48207 7.3165 5.68461 6.86112 5.95534 6.44025C5.76696 6.23068 5.48268 6.08699 5.14709 6.08699ZM29.8529 6.08699C29.5173 6.08699 29.233 6.23068 29.0447 6.44025C29.3154 6.86112 29.5179 7.3165 29.6559 7.79215C29.7218 7.80345 29.7829 7.82611 29.8529 7.82611C30.4211 7.82611 30.8823 7.43655 30.8823 6.95655C30.8823 6.47655 30.4211 6.08699 29.8529 6.08699ZM11.8383 6.95655C13.2718 6.95655 14.4118 7.91954 14.4118 9.13046C14.4118 10.3414 13.2718 11.3044 11.8383 11.3044C10.9896 11.3044 10.2507 10.9615 9.78345 10.4348C10.1923 10.4339 10.584 10.2961 10.8727 10.0516C11.1614 9.80705 11.3235 9.4758 11.3235 9.13046C11.3235 8.78511 11.1614 8.45386 10.8727 8.20935C10.584 7.96483 10.1923 7.82701 9.78345 7.82611C10.2507 7.29946 10.9896 6.95655 11.8383 6.95655ZM23.1597 6.95825C24.5927 6.95825 25.7333 7.92002 25.7333 9.13046C25.7333 10.3409 24.5927 11.3027 23.1597 11.3027C22.3115 11.3027 21.5738 10.9609 21.107 10.4348C21.5158 10.4339 21.9075 10.2961 22.1962 10.0516C22.4849 9.80705 22.647 9.4758 22.647 9.13046C22.647 8.78511 22.4849 8.45386 22.1962 8.20935C21.9075 7.96483 21.5158 7.82701 21.107 7.82611C21.5738 7.30004 22.3115 6.95825 23.1597 6.95825ZM17.5 12.1739C16.7922 12.1741 16.1061 12.3112 15.5563 12.5622C15.0066 12.8133 14.6267 13.1631 14.4801 13.553C14.1695 13.7149 13.8752 13.8976 13.6196 14.1135C12.8788 14.7392 12.353 15.5797 12.353 16.5217C12.353 16.7391 12.4123 17.6116 13.2195 18.2082C13.7255 18.5822 14.4547 18.8351 15.4412 18.9827V20C15.4393 20.1152 15.4645 20.2296 15.5153 20.3365C15.5662 20.4435 15.6417 20.5408 15.7375 20.6229C15.8333 20.7049 15.9474 20.7701 16.0733 20.8146C16.1991 20.859 16.3342 20.8819 16.4706 20.8819C16.607 20.8819 16.7421 20.859 16.8679 20.8146C16.9938 20.7701 17.1079 20.7049 17.2037 20.6229C17.2995 20.5408 17.375 20.4435 17.4259 20.3365C17.4767 20.2296 17.5019 20.1152 17.5 20C17.4981 20.1152 17.5233 20.2296 17.5741 20.3365C17.625 20.4435 17.7005 20.5408 17.7963 20.6229C17.8921 20.7049 18.0062 20.7701 18.1321 20.8146C18.2579 20.859 18.393 20.8819 18.5294 20.8819C18.6658 20.8819 18.8009 20.859 18.9267 20.8146C19.0526 20.7701 19.1667 20.7049 19.2625 20.6229C19.3583 20.5408 19.4338 20.4435 19.4847 20.3365C19.5355 20.2296 19.5607 20.1152 19.5588 20V18.9827C20.5453 18.8351 21.2745 18.5822 21.7805 18.2082C22.5877 17.6116 22.647 16.7391 22.647 16.5217C22.647 15.5797 22.1212 14.7392 21.3804 14.1135C21.1244 13.8972 20.829 13.715 20.5179 13.553C20.3714 13.1632 19.9918 12.8136 19.4424 12.5626C18.8931 12.3116 18.2074 12.1744 17.5 12.1739ZM15.3427 15.1546C15.9187 15.4728 16.6931 15.6514 17.5 15.6522C18.3072 15.6521 19.0823 15.4741 19.6593 15.1563C19.7505 15.2143 19.8419 15.2731 19.9247 15.3431C20.342 15.6956 20.5882 16.1594 20.5882 16.5217C20.5882 16.7391 20.6476 16.7362 20.4254 16.9005C20.2032 17.0647 19.4301 17.3913 17.5 17.3913C15.5699 17.3913 14.7968 17.0647 14.5746 16.9005C14.3524 16.7362 14.4118 16.7391 14.4118 16.5217C14.4118 16.1594 14.658 15.6956 15.0753 15.3431C15.1587 15.2726 15.2507 15.213 15.3427 15.1546Z" />
</svg>
