<svg width="40" height="40" viewBox="0 0 40 40" fill="currentColor" xmlns="http://www.w3.org/2000/svg">
    <path d="M19.9124 0H20.0184C20.5618 0.226685 21.0911 0.478494 21.604 0.754363C27.5081 3.728 33.4123 6.70259 39.3164 9.67813C39.5448 9.78491 39.7313 9.94934 39.8518 10.1501C39.9722 10.3508 40.021 10.5786 39.9918 10.804C39.9787 17.0746 39.9918 23.3438 39.9836 29.6116C39.9068 29.9107 39.698 30.1711 39.4029 30.3359C33.1246 33.502 26.8458 36.6661 20.5665 39.8283C20.4144 39.9299 20.2309 39.9893 20.0399 39.9987C19.8489 40.0081 19.659 39.9672 19.4948 39.8812C13.2089 36.7247 6.92905 33.5625 0.655161 30.3945C0.451263 30.3101 0.28048 30.1747 0.164355 30.0053C0.0482294 29.836 -0.00803769 29.6403 0.0026504 29.443C0.0026504 23.1738 0.0026504 16.9051 0.0026504 10.6368C-0.0127344 10.4403 0.0391132 10.2443 0.151567 10.0738C0.26402 9.90332 0.431971 9.76604 0.633954 9.67956C6.53047 6.70973 12.427 3.738 18.3235 0.764364C18.8488 0.50148 19.3643 0.22288 19.9124 0Z
M8.19816 12.1984C8.19816 17.3694 8.19816 22.5409 8.19816 27.7128C8.19063 27.9992 8.24835 28.2841 8.36795 28.5508C8.48754 28.8174 8.66662 29.0605 8.89472 29.2658C9.33193 29.6441 9.90401 29.8797 10.5155 29.9332C11.1271 29.9868 11.7411 29.8551 12.2551 29.5602C12.5993 29.3554 12.881 29.08 13.0757 28.758C13.2705 28.436 13.3724 28.0772 13.3726 27.7128C13.3726 23.9696 13.3644 20.2264 13.3726 16.4831C17.2691 20.5692 21.1739 24.6497 25.0868 28.7244C25.6304 29.2067 26.3036 29.5618 27.0447 29.757C27.7857 29.9522 28.5709 29.9813 29.3281 29.8416C29.8628 29.7494 30.3496 29.5093 30.7169 29.1567C31.0843 28.8041 31.3128 28.3576 31.3688 27.8829C31.3775 22.6052 31.3775 17.328 31.3688 12.0512C31.3126 11.488 31.0175 10.9636 30.5415 10.5816C30.0656 10.1996 29.4435 9.98767 28.7979 9.98767C28.1524 9.98767 27.5302 10.1996 27.0543 10.5816C26.5784 10.9636 26.2832 11.488 26.227 12.0512C26.227 15.8545 26.2009 19.6534 26.227 23.4553C22.4001 19.5034 18.6204 15.5173 14.8081 11.5512C14.3055 10.9867 13.6401 10.5499 12.8805 10.2857C12.1209 10.0215 11.2947 9.93951 10.4868 10.0482C9.87489 10.1078 9.30759 10.3575 8.88773 10.752C8.46787 11.1464 8.22324 11.6596 8.19816 12.1984Z"/>
</svg>
