<svg width="40" height="40" viewBox="0 0 40 40" fill="currentColor" xmlns="http://www.w3.org/2000/svg">
<path d="M20 0C16.4708 0 14.0761 0.842391 12.5543 2.06522C11.0326 3.28804 10.4348 4.86073 10.4348 6.16848V10.4348H19.1304V11.3043H6.16848C4.5788 11.3043 2.96535 11.9939 1.82065 13.4511C0.675951 14.9083 0 17.0822 0 20C0 22.9178 0.675951 25.0917 1.82065 26.5489C2.96535 28.0061 4.5788 28.6957 6.16848 28.6957H10.4348V33.8315C10.4348 35.1393 11.0326 36.712 12.5543 37.9348C14.0761 39.1576 16.4708 40 20 40C23.5292 40 25.9239 39.1576 27.4457 37.9348C28.9674 36.712 29.5652 35.1393 29.5652 33.8315V29.5652H20.8696V28.6957H33.8315C35.4212 28.6957 37.0346 28.0061 38.1793 26.5489C39.324 25.0917 40 22.9178 40 20C40 17.0822 39.324 14.9083 38.1793 13.4511C37.0346 11.9939 35.4212 11.3043 33.8315 11.3043H29.5652V6.16848C29.5652 4.82677 28.9708 3.25068 27.4457 2.03804C25.9205 0.825408 23.5258 0 20 0ZM20 1.73913C23.2575 1.73913 25.231 2.5 26.3587 3.39674C27.4864 4.29348 27.8261 5.33628 27.8261 6.16848V16.5217C27.8261 17.962 26.6576 19.1304 25.2174 19.1304H14.7826C12.9925 19.1304 11.4504 20.2344 10.788 21.7935C10.676 22.0516 10.574 22.3268 10.5163 22.6087C10.4586 22.8906 10.4348 23.1793 10.4348 23.4783V26.9565H6.16848C5.06454 26.9565 4.04212 26.5251 3.20652 25.462C2.37092 24.3988 1.73913 22.6461 1.73913 20C1.73913 17.3539 2.37092 15.6012 3.20652 14.538C4.04212 13.4749 5.06454 13.0435 6.16848 13.0435H20.8696V8.69565H12.1739V6.16848C12.1739 5.39062 12.5102 4.33084 13.6413 3.42391C14.7724 2.51698 16.7459 1.73913 20 1.73913ZM15.6522 4.34783C14.6943 4.34783 13.913 5.12908 13.913 6.08696C13.913 7.04484 14.6943 7.82609 15.6522 7.82609C16.6101 7.82609 17.3913 7.04484 17.3913 6.08696C17.3913 5.12908 16.6101 4.34783 15.6522 4.34783ZM29.5652 13.0435H33.8315C34.9355 13.0435 35.9579 13.4749 36.7935 14.538C37.6291 15.6012 38.2609 17.3539 38.2609 20C38.2609 22.6461 37.6291 24.3988 36.7935 25.462C35.9579 26.5251 34.9355 26.9565 33.8315 26.9565H19.1304V31.3043H27.8261V33.8315C27.8261 34.6094 27.4898 35.6692 26.3587 36.5761C25.2276 37.483 23.2541 38.2609 20 38.2609C16.7459 38.2609 14.7724 37.483 13.6413 36.5761C12.5102 35.6692 12.1739 34.6094 12.1739 33.8315V23.4783C12.1739 23.2982 12.1943 23.1318 12.2283 22.962C12.4728 21.7731 13.5224 20.8696 14.7826 20.8696H25.2174C27.6053 20.8696 29.5652 18.9096 29.5652 16.5217V13.0435ZM24.3478 32.1739C23.3899 32.1739 22.6087 32.9552 22.6087 33.913C22.6087 34.8709 23.3899 35.6522 24.3478 35.6522C25.3057 35.6522 26.087 34.8709 26.087 33.913C26.087 32.9552 25.3057 32.1739 24.3478 32.1739Z" fill="currentColor"/>
</svg>
