<svg width="40" height="40" viewBox="0 0 40 40" fill="currentColor" xmlns="http://www.w3.org/2000/svg">
<path d="M20 1.73913C20.4925 1.73913 20.9545 1.92935 21.301 2.27921L37.7208 18.699C38.4409 19.4158 38.4409 20.5842 37.7208 21.301L21.301 37.7208C20.9545 38.0707 20.4925 38.2609 20 38.2609C19.5075 38.2609 19.0455 38.0707 18.699 37.7208L2.27921 21.301C1.5591 20.5842 1.5591 19.4158 2.27921 18.699L12.9925 7.98573L14.9694 9.96264C14.4939 11.7289 14.9728 13.6549 16.3111 14.9932C16.6304 15.3125 16.9939 15.5876 17.3913 15.8152V24.1882C15.8084 25.1019 14.7826 26.8037 14.7826 28.6957C14.7826 31.5727 17.123 33.913 20 33.913C22.877 33.913 25.2174 31.5727 25.2174 28.6957C25.2174 26.8037 24.1916 25.1019 22.6087 24.1882V17.6019L23.6651 18.6583C23.1895 20.4246 23.6685 22.3505 25.0068 23.6889C25.9918 24.6739 27.303 25.2174 28.6957 25.2174C30.0883 25.2174 31.3995 24.6739 32.3845 23.6889C34.4192 21.6542 34.4192 18.3458 32.3845 16.3111C31.4029 15.3295 30.1019 14.7894 28.7126 14.7894C28.2541 14.7894 27.7955 14.8505 27.3539 14.9694L25.0306 12.6461C25.5061 10.8798 25.0272 8.9538 23.6889 7.61549C22.7072 6.63383 21.4062 6.09375 20.017 6.09375C19.5584 6.09375 19.0999 6.15489 18.6583 6.27378L16.6814 4.29687L18.699 2.27921C19.0455 1.92935 19.5075 1.73913 20 1.73913ZM20 0C19.0829 0 18.1658 0.349864 17.4694 1.04959L14.2221 4.29687L18.2405 8.31522C18.7874 7.99592 19.4022 7.83288 20.017 7.83288C20.9001 7.83288 21.7833 8.16916 22.4592 8.84511C23.6039 9.98981 23.7704 11.7289 22.9857 13.0605L26.9361 17.0109C27.483 16.6916 28.0978 16.5285 28.7126 16.5285C29.5958 16.5285 30.4789 16.8648 31.1549 17.5408C32.5136 18.8995 32.5136 21.1005 31.1549 22.4592C30.4755 23.1386 29.5856 23.4783 28.6957 23.4783C27.8057 23.4783 26.9158 23.1386 26.2364 22.4592C25.0917 21.3145 24.9253 19.5754 25.7099 18.2405L21.7595 14.2901C21.4776 14.4565 21.1787 14.5788 20.8696 14.6569V25.3397C22.3675 25.7269 23.4783 27.0754 23.4783 28.6957C23.4783 30.6182 21.9226 32.1739 20 32.1739C18.0808 32.1739 16.5217 30.6182 16.5217 28.6957C16.5217 27.0754 17.6325 25.7269 19.1304 25.3397V14.6569C18.5496 14.5075 17.9959 14.2188 17.5408 13.7636C16.3961 12.6189 16.2296 10.8798 17.0143 9.54823L12.9925 5.52649L1.04959 17.4694C-0.349864 18.8655 -0.349864 21.1345 1.04959 22.5306L17.4694 38.9504C18.1658 39.6501 19.0829 40 20 40C20.9171 40 21.8342 39.6501 22.5306 38.9504L38.9504 22.5306C40.3499 21.1345 40.3499 18.8655 38.9504 17.4694L22.5306 1.04959C21.8342 0.349864 20.9171 0 20 0Z"/>
</svg>
