<svg width="40" height="40" viewBox="0 0 40 40" fill="currentColor" xmlns="http://www.w3.org/2000/svg">
<path d="M29.5708 0C27.62 0 25.9308 0.47894 24.7611 0.951087C23.6137 0.601223 21.7115 0.00339653 19.4281 0.434783C18.0976 0.645381 16.8756 1.1447 15.7544 1.90897C13.9083 1.10054 11.9799 0.60462 9.95804 0.523098C8.71355 0.434783 3.64218 0.957881 1.82217 3.38995C1.15321 4.34783 0.484254 5.56386 0.19649 7.04144C-0.0912732 8.34579 -0.0912734 9.82677 0.387087 12.8702C0.674851 14.9558 1.05978 16.3485 1.91934 19.2154C2.0165 19.4769 2.49486 20.8696 3.92995 24.6977C4.21397 25.3906 4.7895 26.695 5.93682 27.911C6.70294 28.7806 7.46907 29.3037 8.42579 29.3037C9.67028 29.3037 10.5298 28.5224 11.296 27.6529C11.352 27.5951 11.4118 27.5306 11.4679 27.4728C11.3969 27.5747 11.3333 27.6868 11.296 27.8261C11.1054 28.6957 12.2527 29.392 13.2094 29.7385C13.9755 30.0849 14.8351 30.1732 15.504 30.1732C16.3636 30.1732 17.0363 30 17.4175 29.9151C17.7463 29.8132 18.4564 29.5346 19.2151 29.0761C19.2487 31.2976 19.2711 33.9198 19.3309 34.5211C19.6187 36.7833 20.2876 38.3458 21.5321 39.2154C22.4888 39.9117 24.2117 40 24.3089 40C26.028 40 28.7075 38.9572 29.8549 37.3064C30.4304 36.5217 30.621 35.8254 30.8116 34.8675C31.0022 34.3478 31.1928 31.3043 31.2899 30.6963C31.4207 29.7351 31.5216 28.7874 31.6225 27.8668C32.2541 28.0163 33.0315 28.176 33.8761 28.176C35.4046 28.176 37.4152 27.2181 37.7964 27.0414C38.5625 26.5217 40.091 25.3057 39.4221 24.2629C39.0409 23.6515 38.4654 23.6515 37.0303 23.8281C37.0303 23.8281 34.7356 24.0863 34.5413 23.998C34.403 23.9504 34.19 23.8281 33.9508 23.6685C34.4479 22.9688 34.8889 22.2758 35.4046 21.6542C36.5519 19.6535 37.2246 18.0876 37.703 16.8716C38.5625 14.6977 39.0409 12.9552 39.3249 11.7391C39.9976 9.13043 40.1882 7.9144 39.8033 6.52174C39.0409 4.08628 36.2641 2.00068 35.1168 1.39266C34.3507 1.0428 32.441 0 29.5708 0ZM29.5708 1.73913C31.9626 1.73913 33.5883 2.6087 34.4479 2.95516C35.5018 3.47826 37.8936 5.21739 38.0842 6.86821C38.1813 7.82609 38.2748 8.78397 37.6058 11.3043C37.2246 12.5204 36.8397 14.0863 35.9764 16.2602C35.498 17.4762 34.9262 18.9572 33.7789 20.7846C33.749 20.8288 33.7154 20.8764 33.6855 20.9239C33.7976 20.5571 33.8761 20.2615 33.8761 20.2615C34.0667 19.392 34.0667 18.6957 33.9695 17.6529C33.8723 17.1298 33.7789 15.8254 33.7789 15.3023C33.7789 15.0442 34.0629 12.3471 34.1601 11.3893C34.2573 9.82677 33.2034 7.911 32.9194 7.56454C31.4843 5.56386 30.7181 4.43614 29.1859 3.30503C28.8047 3.00951 28.1507 2.51698 27.2612 2.02106C27.9638 1.86481 28.7412 1.73913 29.5708 1.73913ZM21.1173 2.09579C22.3655 2.12296 23.4231 2.43546 24.2117 2.69701C26.2223 3.30503 27.4631 4.25951 28.0386 4.69429C29.2831 5.65217 29.952 6.61005 31.3871 8.61073C31.4917 8.80095 31.7646 9.20516 31.9813 9.76902C30.023 9.60598 28.7225 10.231 27.9414 10.8696C26.7941 11.7391 26.8875 13.0435 26.9847 13.998C26.9847 14.6943 27.179 15.5673 28.6141 18.5224C29.1859 19.8268 29.7577 21.216 30.3332 22.1739C30.6322 22.714 30.9984 23.2099 31.3908 23.6515C31.1629 23.7568 30.9312 23.8927 30.7144 24.0863C30.1426 24.6943 30.0455 25.3057 29.8549 26.4368C29.6643 27.3064 29.4737 29.1304 29.3765 30.608C29.3765 31.216 29.0925 34.1746 28.9953 34.6094C28.7075 35.4789 28.6104 35.9137 28.2292 36.4368C27.5602 37.3913 25.4562 38.1759 24.2117 38.0876C23.8305 38.0876 23.255 38.0876 22.7766 37.7412C21.7227 37.0448 21.3415 35.4789 21.2444 34.2629C21.1472 33.3933 21.2444 27.1298 21.0538 25.7371C20.9566 25.3906 20.8632 24.5211 20.097 23.913C19.7756 23.6685 19.1104 23.5428 18.4826 23.4579C18.4901 23.1658 18.5087 22.8736 18.5685 22.6087C18.662 22.0856 18.8526 21.824 19.0469 21.3893C19.1403 21.1311 19.3309 20.7846 19.5253 20.3499C20.3848 17.9144 20.1905 14.6943 19.7121 12.6936C19.6187 12.5204 19.2338 11.1311 17.8958 10.3499C16.4608 9.56522 14.9285 10 14.069 10.2615C13.7139 10.3499 13.3626 10.4891 13.0113 10.6522C13.0711 10.2887 13.1234 9.92187 13.2094 9.56522C13.5906 7.82609 13.9755 6.34851 15.22 4.87092C16.5579 3.38995 18.0864 2.43546 19.8093 2.17391C20.2652 2.10937 20.7025 2.0856 21.1173 2.09579ZM9.30403 2.24864C9.52826 2.24524 9.71886 2.24864 9.86087 2.26223C11.3557 2.33356 12.7871 2.65285 14.2072 3.19633C14.0316 3.37296 13.8559 3.54959 13.6878 3.73981C12.0621 5.47894 11.6771 7.30299 11.296 9.13043C10.8176 11.3043 10.7204 13.5632 11.1016 15.8254L10.9148 17.4762C10.8176 18.3458 10.6233 20 11.6771 21.7391C12.0471 22.3166 12.4545 22.8057 12.9029 23.2235C11.9313 24.392 10.8998 25.4959 9.86087 26.5217C9.28535 27.1298 8.80698 27.5645 8.42579 27.5645C8.32862 27.5645 7.94743 27.3913 7.3719 26.7833C6.31801 25.7405 5.93682 24.6094 5.74622 24.1746C4.5989 21.0428 3.92995 19.0421 3.83278 18.7806C3.06665 15.9986 2.68546 14.6094 2.30053 12.6087C1.82217 9.82677 1.82217 8.4341 2.10993 7.30639C2.3977 6.08696 2.87606 5.12908 3.35442 4.43614C4.5279 2.76155 7.74936 2.28601 9.30403 2.24864ZM31.2563 11.413C31.5628 11.413 31.8954 11.447 32.2467 11.5149C32.2355 12.3268 31.8655 14.8743 31.8655 15.2174C31.8655 15.9137 32.0561 17.303 32.0561 17.8261C32.1532 18.784 32.1532 19.3037 32.0561 20C32.0561 20 31.9141 20.6216 31.7683 21.0632C31.3236 20.1495 30.8303 19.0591 30.236 17.8261C28.801 14.8709 28.7075 14.2629 28.7075 13.8281C28.7075 13.2167 28.7075 12.4355 29.2793 12.089C29.8175 11.6542 30.4715 11.4198 31.2563 11.413ZM16.4047 11.6678C16.5953 11.6882 16.7709 11.7391 16.9391 11.824C17.7052 12.1739 17.8958 13.0435 17.8958 13.0435C18.3742 14.9558 18.5648 17.8261 17.7987 19.7385C17.7052 20.0849 17.5146 20.3465 17.4175 20.608C17.2269 21.0428 17.0363 21.4776 16.8419 22.2588C16.7934 22.5815 16.7709 22.9008 16.7597 23.2201C16.0982 23.0944 15.4741 22.8804 15.0257 22.6087C14.2595 22.2622 13.6878 21.6508 13.3066 20.9545C12.6339 19.6501 12.731 18.4341 12.8282 17.7412L13.0151 15.7371C12.8805 14.7588 12.817 13.7772 12.8319 12.8023C13.2729 12.4592 13.8485 12.1094 14.6445 11.9124C15.22 11.7833 15.8479 11.6033 16.4047 11.6678ZM30.5126 12.252C30.2622 12.2622 29.9969 12.303 29.8549 12.3471C29.4737 12.4355 29.3765 12.4355 29.2793 12.6087C29.1859 12.7819 29.4737 13.0435 29.5708 13.2167C29.6643 13.2167 29.952 13.4783 30.3332 13.3933C30.621 13.305 30.8116 13.1318 30.9087 13.0435C31.0059 12.9552 31.3871 12.5204 31.0993 12.3471C31.0022 12.2588 30.763 12.2385 30.5126 12.252ZM16.1879 12.8838C16.0833 12.8906 15.9824 12.9144 15.8852 12.9586C15.7918 12.9586 15.6012 13.0435 15.504 13.2167C15.4069 13.3899 15.504 13.5632 15.6012 13.6515C15.7918 13.913 16.0796 14.1746 16.5579 14.1746C16.6551 14.1746 17.0363 14.1746 17.3203 13.913C17.3203 13.913 17.6118 13.6515 17.6118 13.3933C17.5146 13.2167 17.324 13.1318 17.0363 13.0435C16.8195 12.9789 16.4981 12.8635 16.1879 12.8838ZM14.4277 24.2629C15.0145 24.5482 15.7208 24.7792 16.4944 24.9389C16.2888 25.3125 15.9936 25.6216 15.6984 25.8254C15.0257 26.2602 14.1661 26.5217 13.3066 26.695C13.1122 26.695 13.0188 26.7833 12.8282 26.7833C12.3648 26.9022 11.9163 27.0346 11.6099 27.3234C12.5479 26.3757 13.4897 25.3295 14.4277 24.2629ZM32.8745 24.9592C33.2931 25.2446 33.7042 25.4552 34.0629 25.5673C34.6385 25.7405 35.1168 25.7405 36.8397 25.5673C36.5519 25.8254 35.6924 26.2602 34.4479 26.4368C33.6481 26.5082 32.654 26.3349 31.8468 26.1243C31.9215 25.6318 32.0075 25.3499 32.1495 25.2174C32.2018 25.1732 32.5195 25.0849 32.8745 24.9592ZM18.4676 25.2208C18.6657 25.2514 18.8227 25.2751 18.8526 25.3023C19.0432 25.4789 19.1403 25.9137 19.1403 26.087C19.1515 26.2364 19.159 26.6135 19.1665 26.875C18.3779 27.714 17.111 28.1793 16.8419 28.2609C16.4608 28.4341 15.3134 28.6073 14.1661 28.2609C15.1228 27.9993 16.0796 27.7412 16.8419 27.2181C17.5109 26.7833 18.0864 26.0904 18.4676 25.2208Z"/>
</svg>
