<svg width="45" height="40" viewBox="0 0 45 40" fill="currentColor" xmlns="http://www.w3.org/2000/svg">
<path d="M31.843 0.00304322C31.0806 -0.0219155 30.2826 0.107496 29.4824 0.360048C27.8822 0.865154 26.2053 1.84948 24.4843 3.21237C23.8099 3.74649 23.1294 4.35703 22.4465 5.00483C21.7787 4.37348 21.1122 3.77746 20.4526 3.25514C18.7331 1.89334 17.0607 0.910495 15.4641 0.406533C13.8675 -0.0974289 12.2788 -0.113045 10.974 0.620365C9.66925 1.35377 8.88899 2.70008 8.53896 4.29826C8.18893 5.89644 8.22558 7.79967 8.57716 9.93039C8.69928 10.6705 8.87535 11.4469 9.07372 12.2379C8.32818 12.4579 7.60416 12.6892 6.93277 12.9445C4.90658 13.715 3.23003 14.6367 2.00917 15.7336C0.788302 16.8304 0 18.1617 0 19.6234C0 21.0852 0.788302 22.4146 2.00917 23.5115C3.23003 24.6083 4.90658 25.5319 6.93277 26.3024C7.65068 26.5754 8.42794 26.8212 9.23033 27.0536C8.94171 28.1035 8.70787 29.1224 8.54851 30.0882C8.19665 32.2206 8.15949 34.1241 8.51031 35.7259C8.86114 37.3277 9.6418 38.6816 10.953 39.4186C12.2642 40.1557 13.86 40.1376 15.4603 39.6325C17.0605 39.1274 18.7355 38.1449 20.4565 36.782C21.1247 36.2528 21.8006 35.6491 22.4771 35.0081C23.1568 35.6526 23.8361 36.2597 24.5073 36.7913C26.2268 38.1531 27.9011 39.1359 29.4977 39.6399C31.0943 40.1439 32.6811 40.1595 33.9859 39.4261C35.2906 38.6927 36.0709 37.3464 36.4209 35.7482C36.771 34.15 36.7324 32.2468 36.3808 30.1161C36.221 29.1476 35.987 28.1273 35.6971 27.0741C36.526 26.836 37.3278 26.5836 38.0672 26.3024C40.0934 25.5319 41.77 24.6083 42.9908 23.5115C44.2117 22.4146 45 21.0852 45 19.6234C45 18.1617 44.2117 16.8304 42.9908 15.7336C41.77 14.6367 40.0934 13.715 38.0672 12.9445C37.3862 12.6855 36.6511 12.4512 35.8938 12.2286C36.0938 11.4328 36.2713 10.6508 36.3942 9.90622C36.7461 7.77379 36.7832 5.86846 36.4324 4.26665C36.0816 2.66484 35.299 1.31278 33.9878 0.575739C33.3322 0.207222 32.6054 0.028002 31.843 0.00304322ZM31.7532 1.94054C32.2317 1.95328 32.6398 2.06412 32.9889 2.26036C33.6872 2.65283 34.2033 3.4167 34.4786 4.67386C34.754 5.93102 34.7444 7.62958 34.4194 9.59941C34.3081 10.2738 34.1465 10.9886 33.9629 11.721C31.9633 11.2525 29.7722 10.9046 27.437 10.7002C26.2638 9.11771 25.058 7.67818 23.8426 6.39938C24.4852 5.7887 25.1236 5.21756 25.7468 4.72406C27.3365 3.4651 28.8415 2.60844 30.0974 2.21201C30.7254 2.0138 31.2748 1.9278 31.7532 1.94054ZM13.1971 1.94612C13.6783 1.93304 14.2289 2.01881 14.8587 2.21759C16.1182 2.61516 17.6259 3.47144 19.217 4.7315C19.8274 5.21497 20.4519 5.77367 21.081 6.36963C19.8568 7.65857 18.6426 9.11318 17.4618 10.7095C15.1349 10.9177 12.9516 11.2688 10.9607 11.7396C10.7783 11.0107 10.6188 10.2988 10.508 9.62731C10.1827 7.65576 10.1746 5.9551 10.4507 4.69431C10.7269 3.43352 11.2472 2.66576 11.9519 2.26965C12.3042 2.0716 12.7159 1.9592 13.1971 1.94612ZM22.4771 7.76976C23.2735 8.61363 24.0705 9.53739 24.8606 10.531C24.0841 10.4995 23.2982 10.4808 22.5 10.4808C21.6859 10.4808 20.885 10.5001 20.0936 10.5328C20.884 9.53835 21.6803 8.61435 22.4771 7.76976ZM22.5 12.4034C23.8298 12.4034 25.1259 12.4566 26.3866 12.5466C27.254 13.7596 28.1017 15.0465 28.9095 16.4085C29.6192 17.6054 30.2615 18.8004 30.8461 19.9805C30.2553 21.1762 29.6023 22.3874 28.8827 23.6007C28.2493 24.6688 27.5879 25.6832 26.9156 26.6613C25.4915 26.7772 24.016 26.8416 22.5 26.8416C20.9475 26.8416 19.4388 26.7733 17.9832 26.652C17.3221 25.688 16.6718 24.6871 16.0485 23.636C15.3306 22.4255 14.6807 21.2184 14.0909 20.0251C14.6832 18.825 15.336 17.6094 16.0581 16.3918C16.8616 15.0369 17.7068 13.7574 18.5695 12.5503C19.8438 12.4583 21.1549 12.4034 22.5 12.4034ZM28.9057 12.7846C30.5169 12.9804 32.0297 13.2524 33.4377 13.5785C33.0198 14.9124 32.505 16.3057 31.8812 17.7436C31.4762 16.9835 31.0567 16.2208 30.6035 15.4565C30.0546 14.5308 29.4838 13.6469 28.9057 12.7846ZM15.9912 12.7994C15.4249 13.6461 14.8678 14.5119 14.3296 15.4193C13.8706 16.1934 13.4424 16.9664 13.0328 17.7362C12.4145 16.3069 11.9027 14.9216 11.4878 13.5953C12.8858 13.2684 14.3905 12.9975 15.9912 12.7994ZM35.3724 14.0843C36.0656 14.2885 36.7351 14.5016 37.3491 14.7351C39.217 15.4453 40.6944 16.2864 41.652 17.1467C42.6096 18.0071 43.0252 18.8275 43.0252 19.6234C43.0252 20.4194 42.6096 21.2398 41.652 22.1002C40.6944 22.9605 39.217 23.8016 37.3491 24.5118C36.6667 24.7713 35.917 25.0066 35.1375 25.2295C34.5815 23.5552 33.8718 21.8083 33.0271 20.0251C33.9983 17.9777 34.7828 15.9816 35.3724 14.0843ZM9.59511 14.0936C10.178 15.9719 10.9525 17.9483 11.9099 19.9749C11.0597 21.7685 10.3464 23.5253 9.78801 25.2091C9.036 24.992 8.31167 24.7631 7.65088 24.5118C5.78304 23.8016 4.30557 22.9605 3.34798 22.1002C2.39038 21.2398 1.97479 20.4194 1.97479 19.6234C1.97479 18.8275 2.39038 18.0071 3.34798 17.1467C4.30557 16.2864 5.78304 15.4453 7.65088 14.7351C8.2555 14.5052 8.91373 14.2951 9.59511 14.0936ZM22.5 15.2501C19.8113 15.2501 17.6108 17.3926 17.6108 20.0102C17.6108 22.6278 19.8113 24.7703 22.5 24.7703C25.1887 24.7703 27.3892 22.6278 27.3892 20.0102C27.3892 17.3926 25.1887 15.2501 22.5 15.2501ZM22.5 17.1542C24.1317 17.1542 25.4335 18.4216 25.4335 20.0102C25.4335 21.5988 24.1317 22.8662 22.5 22.8662C20.8683 22.8662 19.5665 21.5988 19.5665 20.0102C19.5665 18.4216 20.8683 17.1542 22.5 17.1542ZM31.906 22.2601C32.4189 23.4417 32.8646 24.598 33.2391 25.713C32.0631 25.9785 30.811 26.2022 29.4939 26.3787C29.873 25.7897 30.2475 25.1897 30.6131 24.5732C31.0714 23.8004 31.497 23.0285 31.906 22.2601ZM13.0558 22.2619C13.467 23.0352 13.8952 23.8104 14.3564 24.5881C14.7174 25.1968 15.086 25.7912 15.4603 26.3731C14.1471 26.1958 12.8988 25.9713 11.7265 25.7056C12.0993 24.594 12.5453 23.4401 13.0558 22.2619ZM11.1631 27.5538C12.9328 27.962 14.851 28.2755 16.885 28.4798C18.2431 30.3921 19.6571 32.1096 21.081 33.6117C20.4444 34.216 19.8134 34.7832 19.196 35.2722C17.6063 36.5311 16.0993 37.3859 14.8434 37.7824C13.5874 38.1788 12.6501 38.1265 11.9519 37.734C11.2536 37.3415 10.7394 36.5777 10.4641 35.3205C10.1888 34.0634 10.1964 32.3667 10.5214 30.3968C10.6688 29.5032 10.8892 28.5463 11.1631 27.5538ZM33.8044 27.5612C34.0804 28.5593 34.3017 29.5206 34.45 30.4191C34.7753 32.3907 34.7834 34.0895 34.5073 35.3503C34.2311 36.6111 33.7127 37.3807 33.008 37.7768C32.3033 38.1729 31.3589 38.2264 30.0993 37.8288C28.8397 37.4313 27.3321 36.5731 25.741 35.3131C25.1191 34.8205 24.4838 34.2507 23.8426 33.6415C25.2758 32.1337 26.7003 30.4069 28.0672 28.4835C30.1064 28.2806 32.0299 27.9689 33.8044 27.5612ZM19.4366 28.675C20.4406 28.7283 21.4579 28.7643 22.5 28.7643C23.5077 28.7643 24.4919 28.7304 25.4641 28.6806C24.4703 29.986 23.4573 31.1727 22.4484 32.2413C21.4401 31.1704 20.4291 29.9816 19.4366 28.675Z" />
</svg>
