<svg width="40" height="40" viewBox="0 0 40 40" fill="currentColor" xmlns="http://www.w3.org/2000/svg">
    <path d="M0.952381 0C0.699802 2.52542e-05 0.457574 0.100373 0.278974 0.278974C0.100373 0.457574 2.52542e-05 0.699802 0 0.952381V39.0476C2.52542e-05 39.3002 0.100373 39.5424 0.278974 39.721C0.457574 39.8996 0.699802 40 0.952381 40H39.0476C39.3002 40 39.5424 39.8996 39.721 39.721C39.8996 39.5424 40 39.3002 40 39.0476V0.952381C40 0.699802 39.8996 0.457574 39.721 0.278974C39.5424 0.100373 39.3002 2.52542e-05 39.0476 0H0.952381ZM1.90476 1.90476H38.0952V38.0952H1.90476V1.90476ZM10.4762 18.0952V21.3765H15.2381V36.1905H19.0476V21.3765H23.8095V18.0952H10.4762ZM31.1347 18.1045C28.1684 18.0927 24.7786 18.9916 24.7786 23.1659C24.7786 28.6231 32.1317 28.6244 32.1317 31.0863C32.1317 31.3196 32.2307 33.0153 29.6354 33.0153C27.0402 33.0153 24.8772 31.3839 24.8772 31.3839V35.3441C24.8772 35.3441 36.1923 39.0039 36.1923 30.7515C36.1914 25.3943 28.7705 25.6623 28.7705 23.0004C28.7705 21.9689 29.5032 21.0045 31.5327 21.0045C33.5623 21.0045 35.359 22.2024 35.359 22.2024L35.4929 18.6737C35.4929 18.6737 33.4418 18.1137 31.1347 18.1045Z"/>
</svg>
