<svg height="100%" width="100%" viewBox="0 0 124 124" fill="none" preserveAspectRatio="none" xmlns="http://www.w3.org/2000/svg">
    <path d="M35.0943 60.9705V16.1705H39.8303V60.9705H35.0943Z" fill="#2A2D31"/>
    <path d="M88.1784 108.384C85.6611 108.384 83.2931 107.829 81.0744 106.72C78.8984 105.611 77.1491 104.032 75.8264 101.984L78.5784 98.784C79.8157 100.576 81.2451 101.941 82.8664 102.88C84.4877 103.819 86.2797 104.288 88.2424 104.288C93.7891 104.288 96.5624 101.003 96.5624 94.432V67.296H80.1784V63.2H101.234V94.24C101.234 98.976 100.125 102.517 97.9064 104.864C95.7304 107.211 92.4877 108.384 88.1784 108.384Z"
          fill="#2A2D31"/>
    <path d="M122 2.03771L2.00972 122M2 2H121.99V121.962H2V2Z" stroke="#2A2D31" stroke-width="3"/>
</svg>
